<?xml version="1.0" encoding="utf-8"?>
<!-- Generator: Adobe Illustrator 23.1.0, SVG Export Plug-In . SVG Version: 6.00 Build 0)  -->
<svg version="1.1" id="Layer_1" xmlns="http://www.w3.org/2000/svg" xmlns:xlink="http://www.w3.org/1999/xlink" x="0px" y="0px"
	 viewBox="0 0 56.7 17.9" style="enable-background:new 0 0 56.7 17.9;" xml:space="preserve">
<style type="text/css">
	.st0{fill:#FFFFFF;}
	.st1{fill-rule:evenodd;clip-rule:evenodd;fill:#FFFFFF;}
	.st2{fill:#E4662A;}
	.st3{fill-rule:evenodd;clip-rule:evenodd;fill:#E4662A;}
</style>
<g>
	<g>
		<path class="st0" d="M34.8,3.1c-0.2-0.3-0.6-0.4-1.3-0.4s-1.1,0.1-1.3,0.4c-0.6,0.8-1.9,2.3-3.7,4.7l-3.7-4.7L24.6,3
			c-0.1-0.1-0.2-0.1-0.4-0.2c-0.2-0.1-0.5-0.1-0.8-0.1c-0.7,0-1.1,0.1-1.3,0.4C22.1,3.3,22,3.4,22,3.5c0,0.1,0,0.3,0,0.5v8.8
			c0,0.3,0,0.4,0,0.6c0,0.1,0.1,0.3,0.2,0.4c0.2,0.3,0.6,0.4,1.2,0.4c0.7,0,1.1-0.1,1.3-0.4c0.1-0.1,0.1-0.3,0.2-0.4
			c0-0.1,0-0.3,0-0.6V7.6c0.1,0.1,0.4,0.5,1,1.4c0.6,0.9,1.1,1.4,1.3,1.7l0.1,0.2c0.1,0.1,0.2,0.2,0.4,0.3c0.2,0.1,0.4,0.2,0.7,0.2
			c0.2,0,0.5-0.1,0.7-0.2c0.2-0.1,0.3-0.2,0.4-0.3l0.3-0.4c0.1-0.2,0.5-0.6,1-1.3s0.9-1.2,1.2-1.6v5.3c0,0.4,0,0.6,0.1,0.8
			c0.1,0.1,0.1,0.2,0.2,0.3c0.1,0.1,0.2,0.1,0.4,0.2c0.2,0.1,0.4,0.1,0.8,0.1c0.3,0,0.6,0,0.8-0.1c0.4-0.1,0.6-0.6,0.6-1.3V4.1
			c0-0.2,0-0.4,0-0.6C34.9,3.4,34.8,3.3,34.8,3.1z"/>
		<path class="st0" d="M38.9,2.5C38.8,2.2,38.4,2,37.7,2c-0.7,0-1.1,0.1-1.3,0.4c-0.1,0.1-0.1,0.3-0.1,0.4c0,0.1,0,0.3,0,0.6
			c0,0.2,0,0.4,0,0.6c0,0.1,0.1,0.3,0.1,0.4s0.2,0.3,0.4,0.3c0.2,0.1,0.5,0.1,0.8,0.1c0.3,0,0.6,0,0.8-0.1c0.2-0.1,0.4-0.2,0.4-0.3
			C39,4.2,39.1,4.1,39.1,4c0-0.1,0-0.3,0-0.6c0-0.2,0-0.4,0-0.6C39.1,2.8,39,2.6,38.9,2.5z"/>
		<path class="st0" d="M38.8,6.2C38.6,6.1,38.2,6,37.7,6c-0.7,0-1.1,0.1-1.3,0.4c-0.1,0.2-0.1,0.3-0.1,0.4c0,0.1,0,0.3,0,0.6V13
			c0,0.3,0,0.4,0,0.6c0,0.1,0.1,0.3,0.1,0.4c0.2,0.3,0.6,0.4,1.3,0.4c0.7,0,1.1-0.1,1.3-0.4c0.1-0.2,0.1-0.3,0.2-0.4
			c0-0.1,0-0.3,0-0.6V7.4c0-0.2,0-0.4,0-0.5C39.1,6.6,39,6.4,38.8,6.2z"/>
		<path class="st1" d="M51.7,8.7c0.3-0.3,0.7-0.4,1.1-0.4c0.4,0,0.6,0.1,0.8,0.2c0.2,0.1,0.3,0.3,0.3,0.6c0,0.3-0.2,0.5-0.6,0.5
			h-2.1C51.2,9.3,51.4,9,51.7,8.7z M55.2,11.7c-0.2,0-0.4,0.1-0.7,0.2l-0.2,0.1c-0.4,0.1-0.9,0.2-1.5,0.2c-0.4,0-0.7-0.1-1.1-0.3
			c-0.4-0.2-0.5-0.5-0.5-0.7h3.9c0.4,0,0.8-0.2,1.1-0.5c0.3-0.3,0.5-0.8,0.5-1.5s-0.2-1.3-0.6-1.8c-0.7-1-1.8-1.6-3.3-1.6
			c-1.3,0-2.4,0.4-3.3,1.2c-0.9,0.8-1.3,1.9-1.3,3.2c0,1.1,0.3,2,1,2.9c0.3,0.4,0.8,0.8,1.5,1.1c0.6,0.3,1.3,0.4,2.2,0.4
			c2.3,0,3.5-0.5,3.5-1.4c0-0.2-0.1-0.4-0.2-0.7C55.8,11.9,55.5,11.7,55.2,11.7z"/>
		<path class="st0" d="M51.3,15.3c-1.7,0-2.7-1.1-2.9-1.4l-0.1-0.1l0,0l-2.8-3.7l1.6-1.3c0.4-0.3,0.6-0.6,0.6-0.9s-0.2-0.6-0.5-1
			c-0.4-0.4-0.7-0.6-0.9-0.6c-0.3,0-0.6,0.1-1,0.4l-0.2,0.1c-0.2,0.2-0.5,0.4-0.9,0.8c-0.4,0.4-0.7,0.7-0.9,0.8V3.4
			c0-0.2,0-0.4,0-0.4c0-0.3-0.1-0.6-0.3-0.7C42.8,2.1,42.4,2,41.9,2c-0.7,0-1.1,0.1-1.3,0.4c-0.1,0.2-0.1,0.3-0.1,0.4
			c0,0.1,0,0.3,0,0.6V13c0,0.2,0,0.4,0,0.6c0,0.1,0.1,0.3,0.1,0.4c0.2,0.3,0.6,0.4,1.3,0.4c0.7,0,1.1-0.1,1.3-0.4
			c0.1-0.2,0.1-0.3,0.2-0.4c0-0.1,0-0.3,0-0.6v-1.2c0.3,0.2,3.2,4.2,3.4,4.4c1.5,1.7,2.8,1.6,3.4,1.7c0.6,0.1,1.3-0.1,1.5-0.4
			c0.2-0.3,0.5-0.9,0.5-1.3C52,15.7,51.8,15.3,51.3,15.3z"/>
	</g>
	<g>
		<g>
			<path class="st2" d="M17.5,8.8c0,4.9-3.9,8.8-8.7,8.8C3.9,17.6,0,13.6,0,8.8C0,3.9,3.9,0,8.7,0C13.6,0,17.5,3.9,17.5,8.8z"/>
		</g>
		<path class="st0" d="M10.5,7.5c0,0.2-0.2,0.3-0.4,0.3H7.1c-0.2,0-0.3-0.1-0.4-0.3L6.6,7.2c0-0.2,0.1-0.3,0.2-0.3h3.5
			c0.2,0,0.3,0.1,0.2,0.3L10.5,7.5z"/>
		<path class="st0" d="M6.6,6.7h4.1c0.7-0.6,1.2-1.5,1.2-2.5c0-1.8-1.4-3.2-3.2-3.2S5.4,2.4,5.4,4.2C5.4,5.2,5.9,6.1,6.6,6.7z"/>
		<path class="st0" d="M12.1,4.1c0,0.3-0.2,0.5-0.5,0.5H5.5c-0.3,0-0.5-0.2-0.5-0.5c0-0.3,0.2-0.5,0.5-0.5h6.1
			C11.9,3.6,12.1,3.9,12.1,4.1z"/>
		<path class="st3" d="M5.5,3.8c-0.2,0-0.3,0.2-0.3,0.3c0,0.2,0.2,0.3,0.3,0.3h6.1c0.2,0,0.3-0.2,0.3-0.3c0-0.2-0.2-0.3-0.3-0.3H5.5
			z M11.6,4.7H5.5c-0.3,0-0.6-0.3-0.6-0.6c0-0.3,0.3-0.6,0.6-0.6h6.1c0.3,0,0.6,0.3,0.6,0.6C12.2,4.5,11.9,4.7,11.6,4.7z"/>
		<path class="st1" d="M10.6,13.5L7.6,15c0,0-0.1,0-0.1,0c-0.1-0.1-0.2-0.2-0.3-0.3c-0.1-0.1,0-0.1,0-0.1l3.2-1.5c0,0,0.1,0,0.1,0
			C10.5,13.2,10.6,13.4,10.6,13.5C10.6,13.5,10.6,13.5,10.6,13.5z M6.7,13.2c0-0.1,0.1-0.4,0.1-0.5c0-0.1,0.1-0.1,0.1-0.1l3.2-1.5
			c0,0,0.1,0,0.1,0c0,0.1,0.1,0.3,0.1,0.4c0,0,0,0.1,0,0.1L6.7,13.2C6.7,13.3,6.7,13.3,6.7,13.2z M7.2,10.8c0-0.1,0.1-0.4,0.1-0.5
			c0,0,0-0.1,0-0.1l2.3-1.1c0,0,0.1,0,0.1,0c0,0,0,0,0,0.1c0,0,0.1,0.2,0.1,0.3c0,0.1,0,0.1,0,0.1L7.2,10.8
			C7.2,10.9,7.2,10.9,7.2,10.8z M11.3,13.7l-1.1-5.2C10.2,8.2,9.9,8,9.6,8h-2C7.3,8,7.1,8.2,7,8.5L6,13.7c-0.1,0.3,0.1,0.6,0.3,0.8
			l2.1,1.9c0.2,0.2,0.5,0.2,0.7,0l2.1-1.9C11.2,14.3,11.4,13.9,11.3,13.7z"/>
	</g>
</g>
</svg>
