<?xml version="1.0" encoding="utf-8"?>
<!-- Generator: Adobe Illustrator 23.1.0, SVG Export Plug-In . SVG Version: 6.00 Build 0)  -->
<svg version="1.1" id="Layer_1" xmlns="http://www.w3.org/2000/svg" xmlns:xlink="http://www.w3.org/1999/xlink" x="0px" y="0px"
	 viewBox="0 0 200 221.3" style="enable-background:new 0 0 200 221.3;" xml:space="preserve">
<style type="text/css">
	.st0{fill:#FFFFFF;}
	.st1{fill-rule:evenodd;clip-rule:evenodd;fill:#FFFFFF;}
	.st2{fill:#E4662A;}
	.st3{fill-rule:evenodd;clip-rule:evenodd;fill:#E4662A;}
</style>
<g>
	<g>
		<path class="st0" d="M73.5,136.3c-0.9-1.7-3.3-2.5-7.3-2.5c-4,0-6.5,0.8-7.6,2.5c-3.6,4.4-10.7,13.5-21.4,27.3l-21.4-27.4
			l-0.6-0.6c-0.4-0.4-1.2-0.8-2.4-1.2c-1.2-0.4-2.7-0.6-4.4-0.6c-4,0-6.4,0.8-7.4,2.4c-0.5,0.9-0.8,1.7-0.9,2.4
			C0,139.4,0,140.4,0,141.8v51c0,1.5,0,2.6,0.1,3.3c0.1,0.7,0.4,1.5,0.9,2.4c0.9,1.7,3.3,2.5,7.2,2.5c4,0,6.4-0.8,7.4-2.5
			c0.5-0.9,0.8-1.6,0.9-2.3c0.1-0.7,0.1-1.8,0.1-3.2V162c0.3,0.4,2.3,3.1,6,8c3.7,5,6.2,8.3,7.5,9.8l0.8,1c0.5,0.6,1.3,1.2,2.5,1.9
			c1.2,0.6,2.5,1,3.9,1c1.4,0,2.7-0.4,4-1.1c1.2-0.7,2-1.2,2.3-1.6c0.3-0.4,0.9-1.1,1.7-2.2c0.8-1,2.7-3.6,5.8-7.8
			c3-4.1,5.3-7.1,6.9-9v30.8c0,2.1,0.2,3.7,0.5,4.8c0.3,0.8,0.8,1.4,1.3,1.8c0.6,0.4,1.4,0.8,2.5,1.1c1.1,0.3,2.5,0.5,4.3,0.5
			c1.8,0,3.3-0.2,4.5-0.5c2.4-0.7,3.6-3.2,3.6-7.4v-51c0-1.4,0-2.5-0.1-3.2C74.3,138.1,74,137.2,73.5,136.3z"/>
		<path class="st0" d="M97.6,132.6c-0.8-1.6-3.2-2.5-7.2-2.5c-4,0-6.5,0.8-7.4,2.5c-0.4,0.9-0.7,1.6-0.8,2.3
			c-0.1,0.7-0.1,1.8-0.1,3.2c0,1.4,0,2.5,0.1,3.2c0.1,0.7,0.4,1.5,0.9,2.4c0.5,0.9,1.3,1.6,2.5,1.9c1.2,0.4,2.8,0.5,4.8,0.5
			c2,0,3.6-0.2,4.8-0.5c1.2-0.4,2-1,2.5-1.9c0.5-0.9,0.8-1.7,0.9-2.4c0.1-0.7,0.1-1.8,0.1-3.2c0-1.4,0-2.5-0.1-3.2
			C98.4,134.3,98.1,133.5,97.6,132.6z"/>
		<path class="st0" d="M96.8,154.3c-1.3-1-3.4-1.6-6.4-1.6c-4,0-6.5,0.8-7.4,2.4c-0.4,0.9-0.7,1.7-0.8,2.4c-0.1,0.7-0.1,1.8-0.1,3.2
			V193c0,1.5,0,2.5,0.1,3.2c0.1,0.7,0.4,1.5,0.8,2.4c0.9,1.7,3.3,2.5,7.3,2.5c4,0,6.4-0.8,7.3-2.4c0.5-0.9,0.8-1.7,0.9-2.4
			c0.1-0.7,0.1-1.8,0.1-3.2v-32.1c0-1.2,0-2-0.1-2.7C98.5,156.5,97.9,155.2,96.8,154.3z"/>
		<path class="st1" d="M171.2,168.6c2-1.6,4-2.4,6.1-2.4c2,0,3.6,0.4,4.7,1.3c1.1,0.9,1.7,2,1.7,3.4c0,2-1.2,2.9-3.6,2.9h-11.9
			C168.2,172,169.2,170.2,171.2,168.6z M191.1,185.7c-1,0-2.3,0.3-3.8,1l-1,0.4c-2.1,0.7-4.9,1.1-8.6,1.1c-2.1,0-4.2-0.6-6.2-1.7
			c-2.1-1.2-3.1-2.6-3.1-4.3h22.4c2.3,0,4.5-0.9,6.4-2.7c1.9-1.8,2.9-4.6,2.9-8.4s-1.1-7.2-3.2-10.4c-4.1-6-10.5-9-19.3-9
			c-7.7,0-14.1,2.3-19.2,6.9c-5.1,4.6-7.7,10.8-7.7,18.5c0,6.1,2,11.7,5.9,16.6c2,2.6,4.8,4.6,8.4,6.2c3.6,1.6,7.8,2.3,12.4,2.3
			c13.4,0,20.1-2.7,20.1-8.2c0-1.2-0.4-2.6-1.2-4.2C194.9,187.1,193.1,185.7,191.1,185.7z"/>
		<path class="st0" d="M168.8,206.7c-9.8,0.2-15.4-6.1-16.9-8.1l-0.4-0.6l-0.1-0.1h0l-15.9-21.2l9.3-7.7c2.3-1.9,3.5-3.5,3.5-5
			c0-1.4-1-3.4-3.1-5.8c-2-2.5-3.9-3.7-5.4-3.7c-1.6,0-3.5,0.8-5.7,2.5l-1.1,0.7c-1.1,0.9-2.8,2.5-5.1,4.7c-2.3,2.2-4,3.8-5.1,4.7
			v-29.1c0-1.2,0-2-0.1-2.6c-0.1-1.8-0.6-3.2-1.7-4c-1.3-1-3.4-1.6-6.4-1.6c-4,0-6.5,0.8-7.4,2.5c-0.4,0.9-0.7,1.7-0.8,2.4
			c-0.1,0.7-0.1,1.8-0.1,3.2v55c0,1.4,0,2.5,0.1,3.2c0.1,0.7,0.4,1.5,0.8,2.4c0.9,1.7,3.3,2.5,7.3,2.5c4,0,6.4-0.8,7.3-2.4
			c0.5-0.9,0.8-1.7,0.9-2.4c0.1-0.7,0.1-1.8,0.1-3.2V186c1.6,1.2,18.4,24.2,19.9,25.4c8.9,9.8,16,9.2,19.4,9.7
			c3.4,0.5,7.3-0.8,8.6-2.4s3.1-5.3,2.9-7.7C173.2,208.7,171.7,206.7,168.8,206.7z"/>
	</g>
	<g>
		<g>
			<path class="st2" d="M151.5,50.7c0,28-22.6,50.6-50.4,50.6c-27.8,0-50.4-22.7-50.4-50.6c0-28,22.6-50.7,50.4-50.7
				C129,0,151.5,22.7,151.5,50.7z"/>
		</g>
		<path class="st0" d="M111.4,43.2c-0.2,0.9-1.2,1.7-2.2,1.7H91.6c-0.9,0-1.9-0.7-2.2-1.7l-0.5-1.8c-0.2-0.9,0.3-1.7,1.3-1.7h20.4
			c0.9,0,1.5,0.7,1.3,1.7L111.4,43.2z"/>
		<path class="st0" d="M88.6,38.5h23.7c4-3.4,6.6-8.5,6.6-14.2c0-10.3-8.3-18.6-18.5-18.6C90.3,5.7,82,14,82,24.3
			C82,30,84.6,35.1,88.6,38.5z"/>
		<path class="st0" d="M120.4,23.7c0,1.5-1.2,2.8-2.8,2.8h-35c-1.5,0-2.8-1.2-2.8-2.8c0-1.5,1.2-2.8,2.8-2.8h35
			C119.2,21,120.4,22.2,120.4,23.7z"/>
		<path class="st3" d="M82.7,21.8c-1.1,0-1.9,0.9-1.9,1.9c0,1.1,0.9,1.9,1.9,1.9h35c1.1,0,1.9-0.9,1.9-1.9c0-1.1-0.9-1.9-1.9-1.9
			H82.7z M117.6,27.3h-35c-2,0-3.6-1.6-3.6-3.6c0-2,1.6-3.6,3.6-3.6h35c2,0,3.6,1.6,3.6,3.6C121.2,25.7,119.6,27.3,117.6,27.3z"/>
		<path class="st1" d="M111.6,78l-16.9,8.2c0,0-0.3,0.2-0.5,0c-0.4-0.4-1.2-1.1-1.7-1.5c-0.3-0.3,0.1-0.5,0.1-0.5l18.3-8.9
			c0,0,0.3-0.2,0.4,0.2c0.1,0.5,0.4,1.7,0.5,2.2C111.8,77.9,111.6,78,111.6,78z M89.2,76.3c0.1-0.7,0.4-2.2,0.6-2.8
			c0.1-0.4,0.4-0.5,0.4-0.5l18.3-8.9c0,0,0.4-0.3,0.5,0.2c0.1,0.5,0.4,1.6,0.4,2.1c0,0.3-0.2,0.4-0.2,0.4l-19.8,9.7
			C89.4,76.6,89.2,76.7,89.2,76.3z M92.1,62.5c0.1-0.7,0.4-2.2,0.6-2.9c0.1-0.2,0.2-0.3,0.2-0.3l13.4-6.3c0.2-0.1,0.3,0.1,0.3,0.1
			c0,0.1,0.1,0.2,0.1,0.4c0,0,0.3,1.4,0.4,1.9c0.1,0.3-0.1,0.4-0.1,0.4l-14.8,7C92.3,62.7,92.1,62.9,92.1,62.5z M115.9,78.7
			l-6.2-29.8c-0.3-1.5-1.8-2.7-3.3-2.7H94.6c-1.5,0-3,1.2-3.3,2.7l-6.2,29.8c-0.3,1.5,0.4,3.6,1.5,4.6l11.9,11c1.1,1,2.9,1,4.1,0
			l11.9-11C115.5,82.2,116.2,80.2,115.9,78.7z"/>
	</g>
</g>
</svg>
