<?xml version="1.0" encoding="utf-8"?>
<!-- Generator: Adobe Illustrator 23.1.0, SVG Export Plug-In . SVG Version: 6.00 Build 0)  -->
<svg version="1.1" id="Layer_1" xmlns="http://www.w3.org/2000/svg" xmlns:xlink="http://www.w3.org/1999/xlink" x="0px" y="0px"
	 viewBox="0 0 64 64" style="enable-background:new 0 0 64 64;" xml:space="preserve">
<style type="text/css">
	.st0{fill-rule:evenodd;clip-rule:evenodd;fill:#E4662A;}
</style>
<g>
	<path class="st0" d="M32,5C17.2,5,5.1,17.1,5.1,32S17.2,59,32,59s26.9-12.1,26.9-27S46.8,5,32,5z M32,64C14.4,64,0.1,49.6,0.1,32
		S14.4,0,32,0s31.9,14.4,31.9,32S49.6,64,32,64z"/>
	<path class="st0" d="M32,15.6c-9,0-16.3,7.4-16.3,16.4S23,48.4,32,48.4S48.3,41,48.3,32S41,15.6,32,15.6z M32,53.4
		c-11.8,0-21.3-9.6-21.3-21.4c0-11.8,9.6-21.4,21.3-21.4S53.3,20.2,53.3,32C53.3,43.8,43.8,53.4,32,53.4z"/>
	<path class="st0" d="M32,25.3c-3.7,0-6.7,3-6.7,6.7s3,6.7,6.7,6.7s6.7-3,6.7-6.7S35.7,25.3,32,25.3z M32,43.7
		c-6.4,0-11.7-5.3-11.7-11.7S25.6,20.3,32,20.3S43.7,25.5,43.7,32S38.4,43.7,32,43.7z"/>
</g>
</svg>
