<?xml version="1.0" encoding="utf-8"?>
<!-- Generator: Adobe Illustrator 23.1.0, SVG Export Plug-In . SVG Version: 6.00 Build 0)  -->
<svg version="1.1" id="Layer_1" xmlns="http://www.w3.org/2000/svg" xmlns:xlink="http://www.w3.org/1999/xlink" x="0px" y="0px"
	 viewBox="0 0 64 64" style="enable-background:new 0 0 64 64;" xml:space="preserve">
<style type="text/css">
	.st0{fill:#E4662A;}
</style>
<g>
	<path class="st0" d="M54.4,16.5c0,3.7-3,6.7-6.8,6.7H16.4c-3.7,0-6.8-3-6.8-6.7c0-3.7,3-6.7,6.8-6.7h31.2
		C51.3,9.8,54.4,12.8,54.4,16.5z"/>
	<path class="st0" d="M64,32.2c0,3.7-3,6.7-6.8,6.7H26c-3.7,0-6.8-3-6.8-6.7c0-3.7,3-6.7,6.8-6.7h31.2C61,25.4,64,28.5,64,32.2z"/>
	<path class="st0" d="M44.8,47.5c0,3.7-3,6.7-6.8,6.7H6.8c-3.7,0-6.8-3-6.8-6.7c0-3.7,3-6.7,6.8-6.7H38
		C41.7,40.8,44.8,43.8,44.8,47.5z"/>
</g>
</svg>
