<?xml version="1.0" encoding="utf-8"?>
<!-- Generator: Adobe Illustrator 23.1.0, SVG Export Plug-In . SVG Version: 6.00 Build 0)  -->
<svg version="1.1" id="Layer_1" xmlns="http://www.w3.org/2000/svg" xmlns:xlink="http://www.w3.org/1999/xlink" x="0px" y="0px"
	 viewBox="0 0 64 64" style="enable-background:new 0 0 64 64;" xml:space="preserve">
<style type="text/css">
	.st0{fill-rule:evenodd;clip-rule:evenodd;fill:#E4662A;}
	.st1{fill:#E4662A;}
</style>
<g>
	<path class="st0" d="M14.4,42.2c0-4-3.2-7.2-7.2-7.2S0,38.2,0,42.2c0,4,3.2,7.2,7.2,7.2S14.4,46.2,14.4,42.2z M6,46.2
		c-0.3,0-0.5-0.1-0.7-0.3l-3-3c-0.2-0.2-0.3-0.4-0.3-0.7c0-0.5,0.4-0.9,0.9-0.9c0.3,0,0.5,0.1,0.7,0.3L6,43.9l4.7-4.7
		c0.2-0.2,0.4-0.3,0.7-0.3c0.5,0,0.9,0.4,0.9,0.9c0,0.3-0.1,0.5-0.3,0.7l-5.3,5.4C6.5,46.1,6.3,46.2,6,46.2z"/>
	<path class="st0" d="M14.4,21.8c0-4-3.2-7.2-7.2-7.2S0,17.8,0,21.8c0,4,3.2,7.2,7.2,7.2S14.4,25.8,14.4,21.8z M6,25.3
		c-0.3,0-0.5-0.1-0.7-0.3l-3-3c-0.2-0.2-0.3-0.4-0.3-0.7c0-0.5,0.4-0.9,0.9-0.9c0.3,0,0.5,0.1,0.7,0.3L6,23l4.7-4.7
		c0.2-0.2,0.4-0.3,0.7-0.3c0.5,0,0.9,0.4,0.9,0.9c0,0.3-0.1,0.5-0.3,0.7L6.7,25C6.5,25.2,6.3,25.3,6,25.3z"/>
	<path class="st1" d="M64,21.8c0,3.8-3.1,6.9-6.9,6.9H25.4c-3.8,0-6.9-3.1-6.9-6.9c0-3.8,3.1-6.9,6.9-6.9h31.7
		C60.9,14.9,64,18,64,21.8z"/>
	<path class="st1" d="M64,42.2c0,3.8-3.1,6.9-6.9,6.9H25.4c-3.8,0-6.9-3.1-6.9-6.9c0-3.8,3.1-6.9,6.9-6.9h31.7
		C60.9,35.3,64,38.4,64,42.2z"/>
</g>
</svg>
