<svg width="240" height="242" xmlns="http://www.w3.org/2000/svg"><g fill="#28D3EA" fill-rule="nonzero"><path d="M87.652 210.214V31.019C87.652 13.89 103.127.001 120 .001c16.873 0 32.348 13.889 32.348 31.018v179.195c0 17.132-15.475 31.02-32.348 31.02-16.873 0-32.348-13.888-32.348-31.02zM207.652 241.234c-16.873 0-32.348-13.888-32.348-31.02V31.019c0-17.13 15.475-31.018 32.348-31.018C224.525.001 240 13.89 240 31.019v179.195c0 17.132-15.475 31.02-32.348 31.02" opacity=".295"/><path d="M32.348 241.234C15.475 241.234 0 227.346 0 210.214V31.019C0 13.89 15.475.001 32.348.001c16.873 0 32.348 13.889 32.348 31.018v179.195c0 17.132-15.475 31.02-32.348 31.02M120 190.999c-16.873 0-32.348-13.682-32.348-30.555V80.417c0-16.873 15.475-28.466 32.348-28.466 16.873 0 32.348 11.593 32.348 28.466v80.027c0 16.873-15.475 30.555-32.348 30.555M207.652 167.592c-16.873 0-32.348-13.68-32.348-30.553V112.84c0-16.873 15.475-30.553 32.348-30.553 16.873 0 32.348 13.68 32.348 30.553v24.199c0 16.873-15.475 30.553-32.348 30.553"/></g></svg>