<svg id="_x31__x2C_5" enable-background="new 0 0 24 24" height="512" viewBox="0 0 24 24" width="512" xmlns="http://www.w3.org/2000/svg" style="fill: rgba(255,255,255, .5);"><g id="XMLID_1_"><path d="m17.25 7.5c.41 0 .75.34.75.75s-.34.75-.75.75h-.75v-1.5z"/><path d="m16.5 9h.75c.41 0 .75-.34.75-.75v1c0 .41-.34.75-.75.75s-.75-.34-.75-.75z"/><path d="m18.91 16.58c-.57-.58-1.57-.62-2.18-.11-.32.26-.79.21-1.06-.1-.26-.32-.22-.8.1-1.06 1.19-.98 3.1-.9 4.2.21l3.11 3.13c.59.58.92 1.37.92 2.21s-.33 1.63-.92 2.22c-.58.59-1.37.92-2.21.92s-1.63-.33-2.22-.93l-.51-.51c-.29-.29-.29-.77 0-1.06.3-.29.77-.29 1.06 0l.52.52c.61.62 1.69.62 2.3 0 .31-.31.48-.72.48-1.16s-.17-.85-.48-1.15z"/><path d="m1.5 7.5h15v1.5h-15z"/><circle cx="13" cy="5" r="1"/><path d="m12.99 12.97c-.32.32-.49.73-.49 1.16 0 .44.17.85.48 1.16l3.11 3.13c.59.59 1.53.64 2.18.11.32-.26.79-.22 1.06.1.26.32.21.79-.11 1.06-.58.47-1.28.71-1.98.71-.8 0-1.6-.31-2.21-.93l-3.11-3.12c-.59-.59-.92-1.37-.92-2.22 0-.84.33-1.62.92-2.22 1.14-1.17 3.24-1.18 4.42.01l.54.53c.29.3.29.77 0 1.06-.3.3-.77.3-1.07 0l-.53-.53c-.61-.62-1.7-.62-2.29-.01z"/><circle cx="9" cy="5" r="1"/><path d="m8.25 15c.41 0 .75.34.75.75s-.34.75-.75.75h-6.75v-1.5z"/><circle cx="5" cy="5" r="1"/><path d="m1.5 15v1.5h-.75c-.41 0-.75-.34-.75-.75s.34-.75.75-.75z"/><path d="m1.5 9v6h-.75c-.41 0-.75.34-.75.75v-7.5c0 .41.34.75.75.75z"/><path d="m1.5 7.5v1.5h-.75c-.41 0-.75-.34-.75-.75s.34-.75.75-.75z"/><path d="m2.75 1.5c-.69 0-1.25.56-1.25 1.25v4.75h-.75c-.41 0-.75.34-.75.75v-5.5c0-1.52 1.23-2.75 2.75-2.75h12.5c1.52 0 2.75 1.23 2.75 2.75v5.5c0-.41-.34-.75-.75-.75h-.75v-4.75c0-.69-.56-1.25-1.25-1.25z"/><path d="m15.25 24h-12.5c-1.52 0-2.75-1.23-2.75-2.75v-5.5c0 .41.34.75.75.75h.75v4.75c0 .69.56 1.25 1.25 1.25h12.5c.41 0 .75.34.75.75s-.34.75-.75.75z"/></g></svg>